<svg version="1.1" xmlns="http://www.w3.org/2000/svg" xmlns:xlink="http://www.w3.org/1999/xlink" width="48px" height="48px" viewBox="0,0,256,256"><defs><linearGradient x1="40.102" y1="7.899" x2="7.899" y2="40.102" gradientUnits="userSpaceOnUse" id="color-1"><stop offset="0" stop-color="#fcc419"></stop><stop offset="0.033" stop-color="#6afeaa"></stop><stop offset="0.197" stop-color="#97fec4"></stop><stop offset="0.362" stop-color="#bdffd9"></stop><stop offset="0.525" stop-color="#daffea"></stop><stop offset="0.687" stop-color="#eefff5"></stop><stop offset="0.846" stop-color="#fbfffd"></stop><stop offset="1" stop-color="#ffffff"></stop></linearGradient></defs><g fill="none" fill-rule="nonzero" stroke="none" stroke-width="none" stroke-linecap="none" stroke-linejoin="none" stroke-miterlimit="10" stroke-dasharray="" stroke-dashoffset="0" font-family="none" font-weight="none" font-size="none" text-anchor="none" style="mix-blend-mode: normal"><g transform="scale(5.33333,5.33333)"><path d="M39.527,39h-31.054c-2.194,0 -3.973,-1.733 -3.973,-3.871v-22.258c0,-2.138 1.779,-3.871 3.973,-3.871h31.054c2.194,0 3.973,1.733 3.973,3.871v22.258c0,2.138 -1.779,3.871 -3.973,3.871z" fill="url(#color-1)" stroke="none" stroke-width="1" stroke-linecap="butt" stroke-linejoin="miter"></path><path d="M9.5,15h-1c-0.552,0 -1,-0.448 -1,-1v-1c0,-0.552 0.448,-1 1,-1h1c0.552,0 1,0.448 1,1v1c0,0.552 -0.448,1 -1,1zM16.5,14v-1c0,-0.552 -0.448,-1 -1,-1h-1c-0.552,0 -1,0.448 -1,1v1c0,0.552 0.448,1 1,1h1c0.552,0 1,-0.448 1,-1zM22.5,14v-1c0,-0.552 -0.448,-1 -1,-1h-1c-0.552,0 -1,0.448 -1,1v1c0,0.552 0.448,1 1,1h1c0.552,0 1,-0.448 1,-1zM28.5,14v-1c0,-0.552 -0.448,-1 -1,-1h-1c-0.552,0 -1,0.448 -1,1v1c0,0.552 0.448,1 1,1h1c0.552,0 1,-0.448 1,-1zM34.5,14v-1c0,-0.552 -0.448,-1 -1,-1h-1c-0.552,0 -1,0.448 -1,1v1c0,0.552 0.448,1 1,1h1c0.552,0 1,-0.448 1,-1zM40.5,14v-1c0,-0.552 -0.448,-1 -1,-1h-1c-0.552,0 -1,0.448 -1,1v1c0,0.552 0.448,1 1,1h1c0.552,0 1,-0.448 1,-1z" fill="#10e36c" stroke="none" stroke-width="1" stroke-linecap="butt" stroke-linejoin="miter"></path><path d="M9.5,36h-1c-0.552,0 -1,-0.448 -1,-1v-1c0,-0.552 0.448,-1 1,-1h1c0.552,0 1,0.448 1,1v1c0,0.552 -0.448,1 -1,1zM16.5,35v-1c0,-0.552 -0.448,-1 -1,-1h-1c-0.552,0 -1,0.448 -1,1v1c0,0.552 0.448,1 1,1h1c0.552,0 1,-0.448 1,-1zM22.5,35v-1c0,-0.552 -0.448,-1 -1,-1h-1c-0.552,0 -1,0.448 -1,1v1c0,0.552 0.448,1 1,1h1c0.552,0 1,-0.448 1,-1zM28.5,35v-1c0,-0.552 -0.448,-1 -1,-1h-1c-0.552,0 -1,0.448 -1,1v1c0,0.552 0.448,1 1,1h1c0.552,0 1,-0.448 1,-1zM34.5,35v-1c0,-0.552 -0.448,-1 -1,-1h-1c-0.552,0 -1,0.448 -1,1v1c0,0.552 0.448,1 1,1h1c0.552,0 1,-0.448 1,-1zM40.5,35v-1c0,-0.552 -0.448,-1 -1,-1h-1c-0.552,0 -1,0.448 -1,1v1c0,0.552 0.448,1 1,1h1c0.552,0 1,-0.448 1,-1z" fill="#10e36c" stroke="none" stroke-width="1" stroke-linecap="butt" stroke-linejoin="miter"></path><path d="M43.5,31.766v3.734c0,2.209 -1.791,4 -4,4h-31c-2.209,0 -4,-1.791 -4,-4v-12.16" fill="none" stroke="#10e36c" stroke-width="3" stroke-linecap="round" stroke-linejoin="round"></path><path d="M4.5,16.191v-3.691c0,-2.209 1.791,-4 4,-4h31c2.209,0 4,1.791 4,4v11.5" fill="none" stroke="#10e36c" stroke-width="3" stroke-linecap="round" stroke-linejoin="round"></path><path d="M27.846,25.154l-3.846,3.846l-3.846,-3.846" fill="none" stroke="#10e36c" stroke-width="3" stroke-linecap="round" stroke-linejoin="round"></path><path d="M24,19v10" fill="none" stroke="#10e36c" stroke-width="3" stroke-linecap="round" stroke-linejoin="round"></path></g></g></svg>